<svg width="128" height="128" viewBox="0 0 128 128" fill="none" xmlns="http://www.w3.org/2000/svg">
<g clip-path="url(#clip0_895_2)">
<path fill-rule="evenodd" clip-rule="evenodd" d="M20.992 42.6667H16C14.5855 42.6667 13.2289 43.2286 12.2287 44.2288C11.2285 45.2289 10.6666 46.5855 10.6666 48C10.6666 49.4145 11.2285 50.771 12.2287 51.7712C13.2289 52.7714 14.5855 53.3333 16 53.3333H17.1893C14.5565 64.7988 16.2259 76.8319 21.8805 87.1477C27.535 97.4635 36.7809 105.344 47.8625 109.292C58.9441 113.24 71.0897 112.981 81.993 108.564C92.8964 104.148 101.798 95.8807 107.008 85.3333H112C113.414 85.3333 114.771 84.7714 115.771 83.7712C116.771 82.771 117.333 81.4145 117.333 80C117.333 78.5855 116.771 77.2289 115.771 76.2288C114.771 75.2286 113.414 74.6667 112 74.6667H110.811C113.443 63.2011 111.774 51.168 106.119 40.8522C100.465 30.5364 91.219 22.6563 80.1374 18.7083C69.0558 14.7602 56.9102 15.0191 46.0069 19.4357C35.1036 23.8524 26.2018 32.1193 20.992 42.6667ZM33.36 42.6667C38.4277 35.3734 45.9295 30.1256 54.5182 27.8656C63.107 25.6057 72.2201 26.4815 80.2212 30.3359C88.2223 34.1903 94.5873 40.7708 98.1732 48.8957C101.759 57.0207 102.331 66.1579 99.7866 74.6667H50.6666C49.9594 74.6667 49.2811 74.3857 48.781 73.8856C48.2809 73.3855 48 72.7072 48 72C48 71.2927 48.2809 70.6145 48.781 70.1144C49.2811 69.6143 49.9594 69.3333 50.6666 69.3333H61.3333C64.8695 69.3333 68.2609 67.9286 70.7614 65.4281C73.2619 62.9276 74.6666 59.5362 74.6666 56C74.6666 52.4638 73.2619 49.0724 70.7614 46.5719C68.2609 44.0714 64.8695 42.6667 61.3333 42.6667H33.36ZM94.64 85.3333C89.5722 92.6266 82.0704 97.8743 73.4817 100.134C64.8929 102.394 55.7798 101.518 47.7787 97.6641C39.7776 93.8097 33.4127 87.2292 29.8267 79.1042C26.2407 70.9793 25.6687 61.8421 28.2133 53.3333H61.3333C62.0405 53.3333 62.7188 53.6143 63.2189 54.1144C63.719 54.6145 64 55.2927 64 56C64 56.7072 63.719 57.3855 63.2189 57.8856C62.7188 58.3857 62.0405 58.6667 61.3333 58.6667H50.6666C47.1304 58.6667 43.739 60.0714 41.2385 62.5719C38.738 65.0724 37.3333 68.4638 37.3333 72C37.3333 75.5362 38.738 78.9276 41.2385 81.4281C43.739 83.9286 47.1304 85.3333 50.6666 85.3333H94.64Z" fill="#FFD369"/>
</g>
<defs>
<clipPath id="clip0_895_2">
<rect width="128" height="128" fill="white"/>
</clipPath>
</defs>
</svg>
